<?xml version="1.0" encoding="UTF-8"?>
<svg width="51px" height="86px" viewBox="0 0 51 86" version="1.1" xmlns="http://www.w3.org/2000/svg" xmlns:xlink="http://www.w3.org/1999/xlink">
    <!-- Generator: Sketch 46.1 (44463) - http://www.bohemiancoding.com/sketch -->
    <title>noun_853325_cc</title>
    <desc>Created with Sketch.</desc>
    <defs></defs>
    <g id="Page-1" stroke="none" stroke-width="1" fill="none" fill-rule="evenodd">
        <g id="noun_853325_cc" fill-rule="nonzero" fill="#FFFFFF">
            <path d="M0.609,76.07 C0.62,76.101 0.634,76.128 0.651,76.156 C0.667,76.183 0.682,76.209 0.703,76.234 C0.726,76.259 0.753,76.281 0.781,76.301 C0.798,76.314 0.808,76.331 0.827,76.342 L17.058,85.714 C17.059,85.715 17.06,85.714 17.061,85.715 C17.068,85.72 17.077,85.719 17.084,85.722 C17.151,85.757 17.226,85.782 17.308,85.782 C17.39,85.782 17.464,85.758 17.532,85.723 C17.54,85.719 17.549,85.72 17.556,85.715 C17.556,85.714 17.557,85.715 17.558,85.714 L33.783,76.342 C33.802,76.331 33.812,76.314 33.829,76.302 C33.857,76.281 33.884,76.259 33.906,76.234 C33.927,76.209 33.943,76.183 33.959,76.156 C33.976,76.129 33.99,76.101 34.001,76.07 C34.012,76.038 34.017,76.005 34.022,75.97 C34.024,75.949 34.034,75.931 34.034,75.909 L34.034,57.458 L50.014,48.237 C50.033,48.226 50.043,48.209 50.06,48.196 C50.088,48.175 50.115,48.154 50.137,48.129 C50.158,48.104 50.174,48.078 50.19,48.051 C50.207,48.023 50.221,47.996 50.232,47.965 C50.243,47.933 50.248,47.9 50.253,47.865 C50.255,47.844 50.265,47.826 50.265,47.804 L50.265,29.065 L50.265,10.326 C50.265,10.315 50.259,10.306 50.259,10.296 C50.257,10.275 50.255,10.254 50.25,10.233 C50.245,10.21 50.24,10.188 50.232,10.165 C50.224,10.144 50.216,10.123 50.206,10.103 C50.202,10.094 50.202,10.084 50.197,10.076 C50.192,10.068 50.183,10.063 50.178,10.055 C50.165,10.036 50.153,10.019 50.137,10.002 C50.122,9.984 50.106,9.968 50.088,9.953 C50.071,9.938 50.054,9.924 50.035,9.912 C50.027,9.907 50.022,9.898 50.014,9.893 L33.784,0.528 C33.765,0.517 33.745,0.517 33.725,0.508 C33.693,0.494 33.662,0.482 33.626,0.475 C33.595,0.469 33.564,0.469 33.532,0.469 C33.501,0.469 33.47,0.469 33.439,0.475 C33.403,0.482 33.371,0.495 33.337,0.509 C33.319,0.517 33.3,0.517 33.282,0.528 L17.057,9.893 C17.047,9.898 17.042,9.908 17.034,9.914 C17.016,9.925 17.001,9.937 16.985,9.951 C16.966,9.967 16.95,9.983 16.934,10.002 C16.918,10.019 16.906,10.036 16.893,10.055 C16.888,10.063 16.879,10.068 16.874,10.076 C16.869,10.085 16.869,10.095 16.865,10.103 C16.854,10.123 16.846,10.143 16.839,10.165 C16.831,10.187 16.826,10.209 16.821,10.232 C16.816,10.253 16.813,10.274 16.812,10.296 C16.812,10.306 16.806,10.315 16.806,10.326 L16.806,28.776 L0.825,37.996 C0.816,38.001 0.81,38.011 0.802,38.017 C0.784,38.029 0.769,38.041 0.752,38.056 C0.733,38.072 0.718,38.088 0.701,38.106 C0.686,38.123 0.674,38.14 0.661,38.159 C0.656,38.167 0.647,38.172 0.642,38.18 C0.637,38.188 0.637,38.199 0.633,38.207 C0.622,38.227 0.614,38.247 0.607,38.269 C0.599,38.291 0.593,38.313 0.589,38.337 C0.585,38.358 0.581,38.379 0.58,38.4 C0.579,38.41 0.574,38.419 0.574,38.43 L0.574,57.17 L0.574,75.91 C0.574,75.931 0.584,75.949 0.587,75.971 C0.594,76.005 0.599,76.038 0.609,76.07 Z M33.533,1.538 L48.763,10.326 L33.533,19.121 L18.308,10.326 L33.533,1.538 Z M33.033,75.621 L17.808,84.416 L17.808,66.83 L33.033,58.035 L33.033,75.621 Z M49.264,28.776 L34.034,37.563 L34.034,19.988 L49.264,11.193 L49.264,28.776 Z M17.809,65.676 L17.809,48.093 L33.034,39.296 L33.034,56.881 L17.809,65.676 Z M34.033,38.718 L49.263,29.931 L49.263,47.515 L34.033,56.302 L34.033,38.718 Z M17.309,29.643 L32.534,38.43 L17.309,47.227 L2.077,38.43 L17.309,29.643 Z" id="Shape"></path>
        </g>
    </g>
</svg>